<svg id="Layer_1" data-name="Layer 1" xmlns="http://www.w3.org/2000/svg" viewBox="0 0 245 172"><defs><style>.cls-1{fill:#333;}.cls-3{isolation:isolate;}.cls-4{fill:#e7e7e7;}</style></defs><title>logo2</title><rect class="cls-1" width="245" height="143"/><path class="cls-2" d="M134.6,209.52A0.81,0.81,0,0,0,135,208l-2.88-1.63-0.55-1.65c-0.52-1.55-1.31-3.45-2.86-4.39h0l0,0h0l0,0H128l0,0h0l0,0,0,0,0,0,0,0,0,0,0,0,0,0,0,0,0,0,0,0,0,0h0l0,0v0l0,0v0.15s0,0,0,0a0.05,0.05,0,0,0,0,0v2h-3.76v-2a0.14,0.14,0,0,0,0-.05,0,0,0,0,1,0,0V200.7l0,0,0,0v0l0,0,0,0,0,0,0,0,0,0,0,0,0,0,0,0,0,0,0,0,0,0,0,0H122.6l0,0h0l0,0h0c-1.55.94-2.34,2.84-2.86,4.39l-2.24,6.7-1.73-2.25a2.47,2.47,0,0,0-.11-2.85l-0.54-.7a2.47,2.47,0,0,0-3.91,3l0.54,0.7a2.45,2.45,0,0,0,2,1h0a2.47,2.47,0,0,0,.77-0.12l2.66,3.46h0l0.91,1.19a0.81,0.81,0,1,0,1.29-1h0l-0.65-.85,2.58-7.75a11.48,11.48,0,0,1,.92-2.15v3.36L121,218.79h0v0.08h0V219a0.11,0.11,0,0,0,0,0,0.06,0.06,0,0,1,0,0v0.08a0.1,0.1,0,0,0,0,0l0,0v0l0,0v0l0,0,0,0,0,0,0,0,0,0,0,0,0,0,0,0,0,0,0,0,0,0,0,0,0,0h0l0,0h0l0.06,0H123l1.36,3.22h-1.44a0.81,0.81,0,0,0-.81.81h0a0.81,0.81,0,0,0,.81.81h5.39a0.81,0.81,0,0,0,.81-0.81h0a0.81,0.81,0,0,0-.81-0.81h-1.45l1.36-3.22h1.46l0,0h0l0,0,0,0,0,0,0,0,0,0,0,0,0,0,0,0,0,0,0,0,0,0,0,0,0,0v0l0,0v0l0,0V219a0.17,0.17,0,0,0,0,0,0.13,0.13,0,0,1,0,0,0.06,0.06,0,0,0,0,0v0h0V218.8l-1.12-12.35v-3.36a11.48,11.48,0,0,1,.92,2.15l0.65,2a0.81,0.81,0,0,0,.37.45l3.15,1.78A0.81,0.81,0,0,0,134.6,209.52Zm-21-.86a0.84,0.84,0,0,1-.67-0.33l-0.54-.7a0.84,0.84,0,0,1,1.33-1l0.54,0.7a0.84,0.84,0,0,1-.15,1.18,0.83,0.83,0,0,1-.51.17h0Zm14.06,9.4h-5l0.23-2.58h5.39l0.23,2.58h-0.86Zm-0.19-13.5v2l0.66,7.31H123l0.66-7.31v-0.08h0v-1.9h3.77Zm-1.88,17.11-0.84-2h1.68Zm-1.11-13.77a0.81,0.81,0,0,1,.81-0.81h0.6a0.81,0.81,0,1,1,0,1.63h-0.6a0.81,0.81,0,0,1-.81-0.81h0Zm-2.32-13.73v2a3.44,3.44,0,0,0,6.86,0v-1.33a0.81,0.81,0,0,0,0-.11V194.2a3,3,0,0,0,2.08-2.76,3,3,0,0,0-2.45-2.86,3.23,3.23,0,0,0-6.12,0A2.88,2.88,0,0,0,122.16,194.19Zm3.43,3.68a1.8,1.8,0,0,1-1.8-1.68,11.79,11.79,0,0,0,3.6,0A1.8,1.8,0,0,1,125.59,197.86Zm-2.35-7.73a0.81,0.81,0,0,0,.79-0.81,1.56,1.56,0,0,1,3.08,0,0.81,0.81,0,0,0,.81.81,1.44,1.44,0,0,1,1.54,1.31,1.41,1.41,0,0,1-1.35,1.3,0.81,0.81,0,0,0-.73.81v1a9.13,9.13,0,0,1-3.6,0v-0.36a5.33,5.33,0,0,0,2-1.13,0.81,0.81,0,0,0,0-1.15h0a0.81,0.81,0,0,0-1.15,0h0a4,4,0,0,1-1.72.87,1.38,1.38,0,0,1-1.18-1.28A1.45,1.45,0,0,1,123.24,190.13Zm22,21h-1.19a3.54,3.54,0,0,0,.57-1.93v-2.83a0.81,0.81,0,0,0-.81-0.81h-5.49a0.81,0.81,0,0,0-.81.81v2.83a3.54,3.54,0,0,0,.57,1.93h-4.52a0.81,0.81,0,1,0,0,1.63h11.69a0.81,0.81,0,0,0,0-1.63h0Zm-6.1-1.93v-2H143v2a1.93,1.93,0,0,1-1.93,1.93h0a1.93,1.93,0,0,1-1.93-1.93h0Zm0-10.49a2.7,2.7,0,0,1,.89-2.33,0.81,0.81,0,0,1,1.1,1.2,1.08,1.08,0,0,0-.38.93,1.19,1.19,0,0,0,.66.88,2.62,2.62,0,0,1,1.56,2.78,2.9,2.9,0,0,1-2.26,2.31,0.81,0.81,0,0,1-.27-1.61h0a1.27,1.27,0,0,0,.92-1,1.06,1.06,0,0,0-.73-1.08,2.78,2.78,0,0,1-1.5-2.11h0Z" transform="translate(-76 -133)"/><g class="cls-3"><path class="cls-4" d="M150.87,214.74q0-1.68,2.77-1.68a17.72,17.72,0,0,1,4.26.68,19,19,0,0,0,1.12-2.41q0.58-1.46,1-2.58l1-3.15q0.68-2.07,1-2.85a6,6,0,0,1-2.61-1.56,3.12,3.12,0,0,1-.94-2.14,3,3,0,0,1,.8-2,2.62,2.62,0,0,1,2.07-.92,3.69,3.69,0,0,0-.67,2.31,3.36,3.36,0,0,0,1.75,3.12q0.71-2.16,1.38-3.73a24,24,0,0,1,1.58-3.06,7.33,7.33,0,0,1,2-2.26,4.22,4.22,0,0,1,2.44-.78,4.39,4.39,0,0,1,2.63.86,3.18,3.18,0,0,1,1.19,2.77,6.81,6.81,0,0,1-.53,2.56,9.49,9.49,0,0,1-1.54,2.53,7.43,7.43,0,0,1-2.84,2,10.37,10.37,0,0,1-4.13.78q-2.6,7.93-4.63,11.05,6.54,1.93,8.94,1.93a6.9,6.9,0,0,0,3-.73q-1.29,3.47-4.07,3.47a8.21,8.21,0,0,1-1.55-.17,14.15,14.15,0,0,1-1.93-.54q-1.08-.38-1.81-0.66t-2.06-.86q-1.34-.58-1.85-0.78a5.35,5.35,0,0,1-3.92,2,3.81,3.81,0,0,1-2.74-1A3,3,0,0,1,150.87,214.74Zm1.89,1.45a3,3,0,0,0,1.59.42,2.48,2.48,0,0,0,1.3-.32,6.3,6.3,0,0,0,1.2-1,11.93,11.93,0,0,0-3.55-.86q-1.22,0-1.22.76A1.2,1.2,0,0,0,152.76,216.19ZM165,202.1a5.36,5.36,0,0,0,3.32-1.54,9.17,9.17,0,0,0,2.21-3.05,7.61,7.61,0,0,0,.71-3q0-1.53-1.11-1.53a2,2,0,0,0-1.38.68,7.7,7.7,0,0,0-1.35,2.09q-0.67,1.41-1.18,2.76T165,202.1Z" transform="translate(-76 -133)"/><path class="cls-4" d="M172.77,214.64a8.92,8.92,0,0,1,1.38-4.36,13.75,13.75,0,0,1,3.66-4.12,7.47,7.47,0,0,1,4.5-1.72,3.74,3.74,0,0,1,2.4.77,2.4,2.4,0,0,1,1,2q0,1.55-1.8,1.62a1.28,1.28,0,0,1,1.13,1,6.69,6.69,0,0,1-.94,2,5.73,5.73,0,0,0-.94,2.44,1,1,0,0,0,1,1.21,4.15,4.15,0,0,0,2.42-1.31,14.08,14.08,0,0,0,2.86-3.94l0.64,0.64a13.5,13.5,0,0,1-3.11,4.53,5.58,5.58,0,0,1-3.76,1.71,2.47,2.47,0,0,1-2.06-.9,3.22,3.22,0,0,1-.72-2.06,18.47,18.47,0,0,1-2.6,2.67,3.67,3.67,0,0,1-2.3.84,2.72,2.72,0,0,1-2-.78A2.93,2.93,0,0,1,172.77,214.64Zm2.7,0.17q0,1.08.78,1.08a2,2,0,0,0,.93-0.25,5.47,5.47,0,0,0,1.06-.76l1-1a15.43,15.43,0,0,0,1.15-1.31l1-1.28,1-1.31,0.8-1.11a0.33,0.33,0,0,1,.29-0.17h0.07l0.07,0a4,4,0,0,0,.18-1.25q0-1.75-1.44-1.75-2.22,0-4.56,3.3T175.48,214.81Z" transform="translate(-76 -133)"/><path class="cls-4" d="M198.8,215.89a0.31,0.31,0,0,1,.37-0.34,1.7,1.7,0,0,1,.45.14,5.21,5.21,0,0,0,1.08.25,11.57,11.57,0,0,0,1.73.11A18.7,18.7,0,0,0,212,213.8q3.87-2.26,3.87-5.24,0-4-8.44-4h-0.07l-1.26,0-1.19,0L203.44,210q-1,3.64-1.54,5.22a2.78,2.78,0,0,1-1.71-.54,1.6,1.6,0,0,1-.72-1.32,4.75,4.75,0,0,1,.35-1.55l0.14-.41q0.07-.17.67-2.06l1.18-3.65,1.42-4.13q0.85-2.34,1.76-4.55t1.76-3.83a11.86,11.86,0,0,0-2.17.7q-1,.43-1.51.71a2,2,0,0,1-.73.28,1.37,1.37,0,0,1-.83-0.48,1.29,1.29,0,0,1-.5-0.81q1.55-.64,2.52-1a20.23,20.23,0,0,1,2.6-.62,18.52,18.52,0,0,1,3.39-.3q1.12,0,2.14.1a12.74,12.74,0,0,1,2.24.45,7.65,7.65,0,0,1,2.09.93,4.7,4.7,0,0,1,2.06,4q0,4.72-7.11,6.41a10.35,10.35,0,0,1,5.58,2.06,4.52,4.52,0,0,1,1.73,3.38,6.48,6.48,0,0,1-1.61,4.22,11.78,11.78,0,0,1-4,3.1,25.3,25.3,0,0,1-5,1.79,19.8,19.8,0,0,1-4.71.63Q198.83,218.8,198.8,215.89Zm6.4-12.61a21.19,21.19,0,0,0,3.76-.44,15.22,15.22,0,0,0,3.25-1.09,5.92,5.92,0,0,0,2.39-1.93,4.87,4.87,0,0,0,.87-2.88q0-4-6.37-4A61.42,61.42,0,0,0,205.19,203.28Z" transform="translate(-76 -133)"/><path class="cls-4" d="M218.5,214.64a8.92,8.92,0,0,1,1.38-4.36,13.76,13.76,0,0,1,3.66-4.12,7.47,7.47,0,0,1,4.5-1.72,3.74,3.74,0,0,1,2.4.77,2.4,2.4,0,0,1,1,2q0,1.55-1.8,1.62a1.28,1.28,0,0,1,1.13,1,6.66,6.66,0,0,1-.94,2,5.72,5.72,0,0,0-.94,2.44,1,1,0,0,0,1,1.21,4.14,4.14,0,0,0,2.42-1.31,14.08,14.08,0,0,0,2.86-3.94l0.64,0.64a13.49,13.49,0,0,1-3.11,4.53,5.58,5.58,0,0,1-3.76,1.71,2.47,2.47,0,0,1-2.06-.9,3.23,3.23,0,0,1-.72-2.06,18.57,18.57,0,0,1-2.6,2.67,3.68,3.68,0,0,1-2.3.84,2.72,2.72,0,0,1-2-.78A2.94,2.94,0,0,1,218.5,214.64Zm2.7,0.17q0,1.08.78,1.08a2,2,0,0,0,.93-0.25,5.47,5.47,0,0,0,1.06-.76l1-1a15.59,15.59,0,0,0,1.15-1.31l1-1.28,1-1.31,0.8-1.11a0.32,0.32,0,0,1,.28-0.17h0.07l0.07,0a4,4,0,0,0,.18-1.25q0-1.75-1.44-1.75-2.22,0-4.56,3.3T221.21,214.81Z" transform="translate(-76 -133)"/><path class="cls-4" d="M233.27,216.07q2-8.09,2.1-8.6a1.18,1.18,0,0,1,.73-0.65,2.76,2.76,0,0,1,1.13-.29,1.2,1.2,0,0,1,.83.29,1,1,0,0,1,.32.76,14.36,14.36,0,0,1-.47,2.49q3.78-5.3,6.59-5.3,2.13,0,2.13,2.91a9.5,9.5,0,0,1-.57,2.75q2.37-3.53,4.91-3.53a2.06,2.06,0,0,1,1.77.74,3,3,0,0,1,.55,1.85,10.4,10.4,0,0,1-.56,2.76,11.22,11.22,0,0,0-.56,2.32,0.76,0.76,0,0,0,.82.9q2.13,0,4.56-5.22l0.58,0.7a15.08,15.08,0,0,1-2.52,4.33,4.53,4.53,0,0,1-3.51,1.81,2.52,2.52,0,0,1-2-.74,2.67,2.67,0,0,1-.68-1.89,8.73,8.73,0,0,1,.47-2.31,8.83,8.83,0,0,0,.47-2.11,0.8,0.8,0,0,0-.78-1,2.64,2.64,0,0,0-1.72,1.07,33.1,33.1,0,0,0-2.64,3.52,16.14,16.14,0,0,0-1.07,1.76q-0.63,1.16-.79,1.43a4.21,4.21,0,0,1-1.32-.24,0.81,0.81,0,0,1-.71-0.64,30.37,30.37,0,0,1,1.12-3.21,14.33,14.33,0,0,0,1.12-4.18q0-1.06-.71-1.06-1.39,0-3.8,3.06a23,23,0,0,0-3.63,6.4,3.71,3.71,0,0,1-1.39-.34A1.16,1.16,0,0,1,233.27,216.07Z" transform="translate(-76 -133)"/><path class="cls-4" d="M256.32,214a26,26,0,0,1,2-8.53,52.27,52.27,0,0,1,4.6-9.46q2.59-4.11,4.06-4.11a1.07,1.07,0,0,1,1,.71,4,4,0,0,1,.38,1.62,11.48,11.48,0,0,1-1,4.16,23.86,23.86,0,0,1-2.88,5,13.11,13.11,0,0,1-3.79,3.63,14.19,14.19,0,0,0-1,2.89,15.49,15.49,0,0,0-.52,3.87q0,3.28,1.74,3.28a3,3,0,0,0,1.84-.79,6.24,6.24,0,0,0,1.61-2,4.61,4.61,0,0,1-1.81-1.88,5.43,5.43,0,0,1-.64-2.59,4,4,0,0,1,.86-2.65,2.67,2.67,0,0,1,2.14-1,2.21,2.21,0,0,1,1.83.86,4,4,0,0,1,.68,2.52,10,10,0,0,1-1,4.26l0.29,0,0.32,0q2.53,0,4.36-3.75l0.51,0.71a8,8,0,0,1-2.15,3.09,4.87,4.87,0,0,1-3.16,1,5.38,5.38,0,0,1-.71,0q-2.26,3.65-5.56,3.65a3.65,3.65,0,0,1-2.92-1.18A4.93,4.93,0,0,1,256.32,214Zm4.94-9.09a19.31,19.31,0,0,0,3.75-5.17,13.11,13.11,0,0,0,1.78-4.66q-0.73.27-2.62,3.43A30.64,30.64,0,0,0,261.26,204.94Zm2.16,5.1a3.58,3.58,0,0,0,1.48,3.18,6.83,6.83,0,0,0,.62-2.87q0-2.37-1-2.37a0.93,0.93,0,0,0-.77.61A3,3,0,0,0,263.42,210Z" transform="translate(-76 -133)"/><path class="cls-4" d="M269.64,214.64a8.92,8.92,0,0,1,1.38-4.36,13.76,13.76,0,0,1,3.66-4.12,7.47,7.47,0,0,1,4.5-1.72,3.74,3.74,0,0,1,2.4.77,2.4,2.4,0,0,1,1,2q0,1.55-1.8,1.62a1.28,1.28,0,0,1,1.13,1,6.66,6.66,0,0,1-.94,2,5.72,5.72,0,0,0-.94,2.44,1,1,0,0,0,1,1.21,4.14,4.14,0,0,0,2.42-1.31,14.08,14.08,0,0,0,2.86-3.94l0.64,0.64a13.49,13.49,0,0,1-3.11,4.53,5.58,5.58,0,0,1-3.76,1.71,2.47,2.47,0,0,1-2.06-.9,3.23,3.23,0,0,1-.72-2.06,18.57,18.57,0,0,1-2.6,2.67,3.68,3.68,0,0,1-2.3.84,2.72,2.72,0,0,1-2-.78A2.94,2.94,0,0,1,269.64,214.64Zm2.7,0.17q0,1.08.78,1.08a2,2,0,0,0,.93-0.25,5.47,5.47,0,0,0,1.06-.76l1-1a15.59,15.59,0,0,0,1.15-1.31l1-1.28,1-1.31,0.8-1.11a0.32,0.32,0,0,1,.28-0.17h0.07l0.07,0a4,4,0,0,0,.18-1.25q0-1.75-1.44-1.75-2.22,0-4.56,3.3T272.34,214.81Z" transform="translate(-76 -133)"/></g><text x="-76" y="-133"/></svg>